<svg width="60" height="60" viewBox="0 0 41 41" fill="none" xmlns="http://www.w3.org/2000/svg">
<path d="M23.9643 13.7871L22.1652 13.7842C20.1441 13.7842 18.8379 15.1243 18.8379 17.1984V18.7727H17.029C16.8727 18.7727 16.7461 18.8994 16.7461 19.0557V21.3365C16.7461 21.4928 16.8728 21.6194 17.029 21.6194H18.8379V27.3747C18.8379 27.531 18.9644 27.6576 19.1208 27.6576H21.4808C21.6371 27.6576 21.7637 27.5309 21.7637 27.3747V21.6194H23.8787C24.035 21.6194 24.1616 21.4928 24.1616 21.3365L24.1625 19.0557C24.1625 18.9806 24.1326 18.9088 24.0796 18.8556C24.0267 18.8025 23.9545 18.7727 23.8795 18.7727H21.7637V17.4382C21.7637 16.7968 21.9166 16.4712 22.7521 16.4712L23.964 16.4707C24.1202 16.4707 24.2468 16.344 24.2468 16.1878V14.07C24.2468 13.9139 24.1203 13.7874 23.9643 13.7871Z" fill="white"/>
</svg>
