<svg width="60" height="60" viewBox="0 0 41 41" fill="none" xmlns="http://www.w3.org/2000/svg">
<path fill-rule="evenodd" clip-rule="evenodd" d="M20.4959 13.7231C18.5954 13.7231 18.357 13.7312 17.6107 13.7653C16.8658 13.7992 16.3571 13.9175 15.912 14.0905C15.4519 14.2693 15.0616 14.5086 14.6725 14.8976C14.2835 15.2867 14.0442 15.6769 13.8654 16.1371C13.6924 16.5822 13.5741 17.0909 13.5402 17.8358C13.5061 18.5821 13.498 18.8205 13.498 20.721C13.498 22.6214 13.5061 22.8597 13.5402 23.6061C13.5741 24.351 13.6924 24.8596 13.8654 25.3048C14.0442 25.7649 14.2835 26.1552 14.6725 26.5442C15.0616 26.9333 15.4519 27.1725 15.912 27.3514C16.3571 27.5243 16.8658 27.6426 17.6107 27.6766C18.357 27.7107 18.5954 27.7187 20.4959 27.7187C22.3963 27.7187 22.6346 27.7107 23.381 27.6766C24.1259 27.6426 24.6345 27.5243 25.0797 27.3514C25.5398 27.1725 25.9301 26.9333 26.3191 26.5442C26.7082 26.1552 26.9474 25.7649 27.1263 25.3048C27.2992 24.8596 27.4175 24.351 27.4515 23.6061C27.4856 22.8597 27.4936 22.6214 27.4936 20.721C27.4936 18.8205 27.4856 18.5821 27.4515 17.8358C27.4175 17.0909 27.2992 16.5822 27.1263 16.1371C26.9474 15.6769 26.7082 15.2867 26.3191 14.8976C25.9301 14.5086 25.5398 14.2693 25.0797 14.0905C24.6345 13.9175 24.1259 13.7992 23.381 13.7653C22.6346 13.7312 22.3963 13.7231 20.4959 13.7231ZM20.4981 23.0988C19.1836 23.0988 18.118 22.0332 18.118 20.7187C18.118 19.4042 19.1836 18.3386 20.4981 18.3386C21.8126 18.3386 22.8782 19.4042 22.8782 20.7187C22.8782 22.0332 21.8126 23.0988 20.4981 23.0988ZM20.4981 17.0521C18.473 17.0521 16.8314 18.6937 16.8314 20.7188C16.8314 22.7438 18.473 24.3854 20.4981 24.3854C22.5231 24.3854 24.1647 22.7438 24.1647 20.7188C24.1647 18.6937 22.5231 17.0521 20.4981 17.0521ZM25.1647 16.8854C25.1647 17.3456 24.7916 17.7187 24.3314 17.7187C23.8712 17.7187 23.4981 17.3456 23.4981 16.8854C23.4981 16.4252 23.8712 16.052 24.3314 16.052C24.7916 16.052 25.1647 16.4252 25.1647 16.8854Z" fill="white"/>
</svg>
