<svg class="bg-icon margin" width="70" height="70" viewBox="0 -6 12.5 28" fill="none" xmlns="http://www.w3.org/2000/svg">
    <circle cx="6.3" cy="8.8" r="15" fill="#2d7d7d"/>
    <path d="M11.558 3.08853C10.4392 1.15453 8.43546 0 6.19798 0C3.9605 0 1.9568 1.15453 0.83813 3.08853C-0.280679 5.0224 -0.280679 7.33159 0.83813 9.26559L5.7373 17.7345C5.83224 17.8988 6.00796 18 6.19798 18C6.38814 18 6.56385 17.8988 6.65879 17.7345L11.558 9.26559C12.6768 7.33159 12.6768 5.0224 11.558 3.08853ZM10.6363 8.73441L6.19798 16.4068L1.75976 8.73441C0.833314 7.13301 0.833314 5.22098 1.75976 3.61958C2.68607 2.01819 4.34536 1.0621 6.19812 1.0621C8.05073 1.0621 9.71003 2.01819 10.6363 3.61958C11.5628 5.22098 11.5628 7.13301 10.6363 8.73441Z" fill="white"></path>
    <path d="M6.19802 3.18262C4.44433 3.18262 3.01758 4.60672 3.01758 6.35698C3.01758 8.10724 4.44433 9.5312 6.19802 9.5312C7.95184 9.5312 9.37859 8.10724 9.37859 6.35698C9.37859 4.60672 7.95184 3.18262 6.19802 3.18262ZM6.19802 8.4691C5.03119 8.4691 4.08176 7.52153 4.08176 6.35698C4.08176 5.19229 5.03119 4.24472 6.19802 4.24472C7.36498 4.24472 8.31441 5.19229 8.31441 6.35698C8.31441 7.52153 7.36498 8.4691 6.19802 8.4691Z" fill="white"></path>
    <path d="M11.558 3.08853C10.4392 1.15453 8.43546 0 6.19798 0C3.9605 0 1.9568 1.15453 0.83813 3.08853C-0.280679 5.0224 -0.280679 7.33159 0.83813 9.26559L5.7373 17.7345C5.83224 17.8988 6.00796 18 6.19798 18C6.38814 18 6.56385 17.8988 6.65879 17.7345L11.558 9.26559C12.6768 7.33159 12.6768 5.0224 11.558 3.08853ZM10.6363 8.73441L6.19798 16.4068L1.75976 8.73441C0.833314 7.13301 0.833314 5.22098 1.75976 3.61958C2.68607 2.01819 4.34536 1.0621 6.19812 1.0621C8.05073 1.0621 9.71003 2.01819 10.6363 3.61958C11.5628 5.22098 11.5628 7.13301 10.6363 8.73441Z" fill="white"></path>
    <path d="M6.19802 3.18262C4.44433 3.18262 3.01758 4.60672 3.01758 6.35698C3.01758 8.10724 4.44433 9.5312 6.19802 9.5312C7.95184 9.5312 9.37859 8.10724 9.37859 6.35698C9.37859 4.60672 7.95184 3.18262 6.19802 3.18262ZM6.19802 8.4691C5.03119 8.4691 4.08176 7.52153 4.08176 6.35698C4.08176 5.19229 5.03119 4.24472 6.19802 4.24472C7.36498 4.24472 8.31441 5.19229 8.31441 6.35698C8.31441 7.52153 7.36498 8.4691 6.19802 8.4691Z" fill="white"></path>
</svg>
