<svg width="60" height="60" viewBox="0 0 41 41" fill="none" xmlns="http://www.w3.org/2000/svg">
<g clip-path="url(#clip0_605_36991)">
<path d="M19.0459 18.4653L19.3067 18.2045L19.307 18.2042L19.0459 18.4653L19.0459 18.4653Z" fill="black"/>
<path d="M21.9469 20.8444L21.6836 21.1077L21.6836 21.1077L21.9469 20.8444L21.9469 20.8444Z" fill="black"/>
<path fill-rule="evenodd" clip-rule="evenodd" d="M19.6957 12.7206H22.096C25.1843 12.7206 27.6967 15.233 27.6967 18.3213V20.7216C27.6967 23.8099 25.1843 26.3223 22.096 26.3223H19.2728L17.2954 28.2997L16.9506 28.6445C16.93 28.6651 16.9074 28.6813 16.8837 28.6933C16.7176 28.7773 16.4953 28.659 16.4953 28.4559V25.7829C16.2516 25.6672 16.0188 25.5352 15.798 25.3886C14.2523 24.3623 13.2949 22.6187 13.2949 20.7216V18.3213C13.2949 15.233 15.8074 12.7206 18.8956 12.7206H19.6957ZM21.0294 17.2548C20.8821 17.2548 20.7627 17.3742 20.7627 17.5214C20.7627 17.6687 20.8821 17.7881 21.0294 17.7881C21.6176 17.7881 22.0962 18.2667 22.0962 18.8549C22.0962 19.0003 22.2176 19.1216 22.3629 19.1216C22.5082 19.1216 22.6296 19.0003 22.6296 18.8549C22.6296 17.9726 21.9118 17.2548 21.0294 17.2548ZM20.7336 16.2036C20.8313 16.1928 20.9309 16.1874 21.0295 16.1874C22.5001 16.1874 23.6965 17.3838 23.6965 18.8544C23.6965 18.9531 23.6911 19.0526 23.6803 19.1504C23.6643 19.2948 23.5303 19.4021 23.3859 19.3862C23.2414 19.3703 23.1341 19.2363 23.1501 19.0918C23.1587 19.0135 23.1631 18.9336 23.1631 18.8544C23.1631 17.6779 22.206 16.7208 21.0295 16.7208C20.9504 16.7208 20.8705 16.7252 20.7921 16.7338C20.6459 16.7498 20.5139 16.6444 20.4977 16.498C20.4816 16.3516 20.5872 16.2198 20.7336 16.2036ZM21.0295 15.121C20.9342 15.121 20.8377 15.1246 20.7427 15.1318C20.5958 15.1429 20.4857 15.2711 20.4969 15.4179C20.508 15.5648 20.6365 15.6748 20.783 15.6637C20.8646 15.6575 20.9476 15.6544 21.0295 15.6544C22.7942 15.6544 24.2299 17.0901 24.2299 18.8548C24.2299 19.1045 24.2011 19.353 24.1443 19.5935C24.1117 19.7313 24.1966 19.8746 24.3332 19.912C24.477 19.9514 24.6291 19.8613 24.6634 19.7162C24.7297 19.4356 24.7633 19.1458 24.7633 18.8548C24.7633 16.7959 23.0884 15.121 21.0295 15.121ZM24.2831 21.3624L24.5228 22.6613C24.5294 22.6969 24.5287 22.7335 24.5208 22.7688C24.4429 23.1117 24.27 23.4247 24.0209 23.6738C23.6808 24.0139 23.2175 24.1883 22.6645 24.1883C22.5161 24.1883 22.3614 24.1758 22.2008 24.1505C20.9255 23.9499 19.1508 23.325 17.9945 22.1732L17.9787 22.1576C16.8261 21.0003 16.2013 19.2257 16.0007 17.9505C15.8812 17.1911 16.0461 16.5617 16.4774 16.1304C16.7265 15.8812 17.0394 15.7084 17.3824 15.6305C17.4177 15.6225 17.4543 15.6218 17.4899 15.6283L18.7888 15.8681C18.8961 15.8879 18.9805 15.9711 19.0019 16.078L19.3791 17.9639C19.3966 18.0514 19.3692 18.1418 19.3062 18.2049L18.5425 18.9685C19.1728 20.3148 19.8893 21.0328 21.1802 21.6112L21.9463 20.845C22.0094 20.782 22.0997 20.7546 22.1873 20.7721L24.0731 21.1492C24.1801 21.1706 24.2632 21.255 24.2831 21.3624Z" fill="white"/>
</g>
<defs>
<clipPath id="clip0_605_36991">
<rect width="16" height="16" fill="white" transform="translate(12.4961 12.7207)"/>
</clipPath>
</defs>
</svg>
